<svg version="1.1" id="Layer_1" xmlns="http://www.w3.org/2000/svg" xmlns:xlink="http://www.w3.org/1999/xlink" x="0px" y="0px"
	 width="100%" viewBox="0 0 2745 2035" enable-background="new 0 0 2745 2035" xml:space="preserve">
<path fill="#FFFFFF" opacity="1.000000" stroke="none" 
	d="
M1676.000000,2038.000000 
	C1117.333374,2038.000000 559.666687,2038.000000 2.000000,2038.000000 
	C2.000000,1359.333374 2.000000,680.666687 2.000000,2.000000 
	C917.333313,2.000000 1832.666626,2.000000 2748.000000,2.000000 
	C2748.000000,680.666687 2748.000000,1359.333374 2748.000000,2038.000000 
	C2391.000000,2038.000000 2034.000000,2038.000000 1676.000000,2038.000000 
M2224.005371,428.926178 
	C2209.311279,417.824799 2193.225830,409.030212 2176.277832,402.107941 
	C2122.676758,380.214874 2067.045410,370.217896 2008.968750,373.248505 
	C1975.889038,374.974701 1943.710571,380.711639 1912.044189,389.942078 
	C1856.695923,406.075592 1805.962280,432.205170 1756.990601,462.040314 
	C1704.843872,493.809814 1660.111328,534.362305 1618.415161,578.653870 
	C1583.963989,615.249146 1552.135132,654.029541 1520.416016,692.937317 
	C1488.495361,732.092102 1456.686890,771.341736 1424.404419,810.196838 
	C1409.148193,828.559143 1389.975220,841.392883 1366.219849,846.507080 
	C1347.492310,850.538757 1331.352051,841.549927 1325.865845,823.149841 
	C1323.715698,815.938721 1322.488770,808.166626 1322.474731,800.647095 
	C1322.265625,688.325806 1322.346313,576.003967 1322.301147,463.682312 
	C1322.297363,454.032135 1322.086426,444.372650 1321.630005,434.733673 
	C1320.242065,405.423096 1306.317017,387.279755 1278.341675,378.032684 
	C1265.935791,373.931976 1253.115967,372.522217 1240.129028,371.915741 
	C1205.131348,370.281342 1170.331909,371.688873 1135.958862,378.900604 
	C1103.294434,385.753784 1072.393433,397.423157 1042.169800,411.677216 
	C994.715637,434.057465 954.432556,465.311371 920.201965,504.757446 
	C904.085144,523.329834 888.020264,541.947632 871.830811,560.456421 
	C843.828491,592.470520 815.864502,624.519470 787.663513,656.358154 
	C763.868164,683.222900 739.837402,709.880676 715.767212,736.500122 
	C692.580383,762.142517 669.561157,787.951538 645.790833,813.045654 
	C630.958252,828.704224 613.271973,840.551636 591.615112,844.966309 
	C572.932556,848.774658 556.221130,838.837646 549.850159,820.914307 
	C545.280762,808.059387 544.893250,794.828857 546.066223,781.538635 
	C547.639160,763.716614 549.602295,745.922913 551.743530,728.158752 
	C554.679810,703.799377 558.371826,679.524658 560.953674,655.130554 
	C564.267395,623.821594 567.720215,592.477051 569.327881,561.056519 
	C570.305969,541.942932 568.333191,522.630554 564.079285,503.735992 
	C552.538269,452.474152 522.349243,415.398987 476.862640,390.552185 
	C443.382385,372.263733 406.838318,368.671326 369.539612,371.974823 
	C317.881683,376.550018 271.644562,395.765320 230.023178,426.248108 
	C197.578003,450.010406 171.615173,479.635834 153.492859,515.613464 
	C137.007767,548.340820 127.383263,582.798096 127.423965,619.970764 
	C127.454948,648.265564 131.737869,675.481384 141.231567,702.018372 
	C156.863220,745.712280 181.478775,783.404480 215.608475,814.975708 
	C236.854294,834.628906 260.555237,850.127625 287.479614,860.832031 
	C314.703247,871.655396 343.378601,874.652405 372.147003,877.523010 
	C391.608063,879.464722 411.158844,881.089600 430.410645,884.373718 
	C447.876465,887.353088 463.198700,895.016968 472.568695,911.462158 
	C479.816406,924.182617 483.672791,937.778442 483.593628,952.349670 
	C483.535980,962.960632 482.406799,973.567139 482.389496,984.176697 
	C482.274231,1054.835815 482.180237,1125.495728 482.389221,1196.154419 
	C482.503418,1234.761597 483.148895,1273.368042 483.716248,1311.972534 
	C483.893616,1324.041992 486.792114,1335.636963 491.356964,1346.779297 
	C499.983765,1367.836548 515.220886,1381.078125 537.996765,1384.194336 
	C555.057251,1386.528687 572.236572,1388.536499 589.423584,1389.270508 
	C612.332031,1390.248901 635.252991,1389.563110 658.037842,1385.979858 
	C702.498535,1378.987793 741.201050,1360.348755 772.697083,1328.210571 
	C787.086365,1313.528076 799.565125,1296.971313 812.887024,1281.244751 
	C847.669800,1240.183472 882.181885,1198.889160 917.312012,1158.127319 
	C938.141602,1133.958374 959.843933,1110.537231 981.325500,1086.936035 
	C1003.489136,1062.585571 1025.847778,1038.412598 1048.146851,1014.185730 
	C1060.304321,1000.976990 1072.765625,988.038391 1084.645020,974.585144 
	C1103.126831,953.654663 1123.516479,935.243286 1149.794678,924.707703 
	C1166.433594,918.036865 1183.355103,912.042419 1200.300293,906.179016 
	C1206.522583,904.025940 1213.108154,902.562317 1219.647827,901.756592 
	C1237.069580,899.609863 1250.855347,909.842712 1254.320435,924.970337 
	C1255.862915,931.704407 1257.476685,938.625183 1257.497314,945.465881 
	C1257.553345,964.072510 1256.414795,982.681152 1256.390137,1001.289856 
	C1256.260742,1098.946167 1256.280151,1196.603027 1256.413208,1294.259277 
	C1256.425293,1303.192871 1256.957031,1312.228638 1258.364014,1321.038696 
	C1263.222046,1351.457153 1279.978394,1372.733276 1308.841431,1383.906616 
	C1337.321289,1394.931763 1366.924561,1396.872803 1397.014648,1393.725342 
	C1436.633911,1389.580933 1473.578369,1377.269165 1507.563721,1356.496826 
	C1522.939087,1347.098999 1537.204956,1336.086670 1549.380371,1322.710327 
	C1561.232422,1309.689209 1572.545410,1296.179321 1584.266602,1283.036865 
	C1620.770020,1242.107666 1657.407227,1201.297729 1693.891357,1160.351440 
	C1722.628662,1128.099854 1751.270264,1095.762451 1779.853516,1063.374268 
	C1803.594604,1036.472900 1827.107300,1009.369873 1850.886475,982.502563 
	C1861.236938,970.807861 1871.511841,958.974670 1882.706177,948.116882 
	C1895.657593,935.554810 1911.080322,926.199768 1926.958374,917.673645 
	C1955.659058,902.262024 1985.833496,891.469604 2018.595459,889.557495 
	C2038.829102,888.376648 2059.122314,888.249573 2079.379150,887.418213 
	C2089.654541,886.996399 2099.990967,886.658081 2110.157715,885.252258 
	C2145.140381,880.414673 2176.649902,866.862183 2204.704346,845.547546 
	C2260.451172,803.192993 2296.921875,747.634094 2315.635254,680.481201 
	C2325.106934,646.493530 2327.846924,611.756470 2320.741455,576.905945 
	C2308.206055,515.423706 2274.913574,467.195557 2224.005371,428.926178 
M2618.591797,348.092346 
	C2620.716797,347.205841 2622.841797,346.319336 2625.725342,345.116241 
	C2503.031250,300.835388 2421.643555,216.338699 2376.999512,94.650475 
	C2337.775391,218.723862 2244.719482,305.735016 2122.441895,341.369934 
	C2254.223145,379.136292 2336.495605,464.681335 2372.707520,596.858765 
	C2373.760254,593.403442 2374.346191,591.582336 2374.870361,589.743652 
	C2392.503174,527.868530 2426.658447,476.307617 2474.021240,433.461456 
	C2515.918213,395.559906 2564.085449,367.751129 2618.591797,348.092346 
M1152.112061,1683.212891 
	C1169.680542,1638.474121 1187.249023,1593.735229 1205.167480,1548.104980 
	C1206.407715,1550.291992 1207.372803,1551.592896 1207.937744,1553.048828 
	C1219.956787,1584.017456 1231.953003,1614.994995 1243.906372,1645.989014 
	C1252.152832,1667.371094 1260.294800,1688.793579 1268.555176,1710.170166 
	C1271.080933,1716.706177 1273.412231,1718.088257 1279.571289,1718.222290 
	C1286.668335,1718.376831 1289.433105,1713.695923 1291.463867,1708.133911 
	C1298.413086,1689.101562 1305.256104,1670.030396 1312.213135,1651.000977 
	C1332.854736,1594.540771 1353.544067,1538.098022 1374.156616,1481.627197 
	C1375.166992,1478.859619 1376.068726,1475.918091 1376.251221,1473.009155 
	C1376.681885,1466.143555 1374.669312,1463.906250 1367.835938,1463.513550 
	C1362.854492,1463.227417 1357.843872,1463.422852 1352.846436,1463.443359 
	C1341.130981,1463.491333 1338.177124,1465.418823 1334.309937,1476.050415 
	C1318.756958,1518.808716 1303.282837,1561.595581 1287.725708,1604.352295 
	C1284.885498,1612.158325 1281.794067,1619.872803 1278.052368,1629.627075 
	C1271.387207,1612.322998 1265.554321,1597.205444 1259.740112,1582.080566 
	C1245.682373,1545.510376 1231.653442,1508.929321 1217.565918,1472.370605 
	C1214.343628,1464.008545 1212.630737,1463.297485 1204.426880,1463.344238 
	C1197.405518,1463.384399 1195.641602,1468.305054 1193.708984,1473.288940 
	C1176.899658,1516.636475 1160.155884,1560.009521 1143.333252,1603.351807 
	C1140.179810,1611.476074 1136.761719,1619.497803 1132.976929,1628.763062 
	C1131.034058,1623.952881 1129.575195,1620.615479 1128.324097,1617.201904 
	C1110.948364,1569.798218 1093.618408,1522.377563 1076.232422,1474.977661 
	C1072.576782,1465.011230 1070.452393,1463.563965 1060.244263,1463.443848 
	C1057.579224,1463.412476 1054.905396,1463.575806 1052.249512,1463.416870 
	C1032.659912,1462.245361 1030.564331,1466.959961 1037.145386,1484.665894 
	C1055.082886,1532.924927 1072.641235,1581.324951 1090.400269,1629.650513 
	C1100.252319,1656.459717 1110.235718,1683.220581 1120.087158,1710.030029 
	C1122.023315,1715.298828 1125.280029,1718.320435 1131.171875,1718.211792 
	C1137.040649,1718.103516 1139.261230,1716.514771 1141.920044,1709.752930 
	C1145.201050,1701.408447 1148.444336,1693.049072 1152.112061,1683.212891 
M1509.650024,1671.000000 
	C1509.650513,1682.657349 1509.533325,1694.316284 1509.691162,1705.971558 
	C1509.805420,1714.400146 1512.647949,1717.125610 1521.155029,1717.465942 
	C1524.480469,1717.598999 1527.815552,1717.500610 1531.146240,1717.489258 
	C1544.800049,1717.442749 1547.664307,1714.680542 1547.683350,1701.389038 
	C1547.710571,1682.404175 1547.877563,1663.416870 1547.622192,1644.435547 
	C1547.461670,1632.503540 1547.471313,1620.471680 1545.932617,1608.676758 
	C1542.994507,1586.155396 1533.270264,1566.866943 1515.205200,1552.469360 
	C1494.346436,1535.845093 1470.436768,1530.870361 1444.201660,1533.330200 
	C1374.977295,1539.821289 1346.633667,1609.249023 1370.994751,1664.238647 
	C1387.249390,1700.930176 1426.822021,1720.154175 1467.802490,1717.462646 
	C1472.007690,1717.186401 1475.808960,1715.910767 1477.340210,1711.547607 
	C1479.648438,1704.971191 1482.154053,1698.398926 1483.651001,1691.620850 
	C1485.201904,1684.597168 1482.633911,1681.926636 1475.345459,1681.459229 
	C1467.738770,1680.971313 1460.116455,1680.699585 1452.518433,1680.109497 
	C1425.363770,1678.000610 1403.410034,1655.705811 1401.725586,1628.641846 
	C1399.720459,1596.428101 1420.766602,1571.311401 1451.940918,1569.622681 
	C1483.406860,1567.918335 1506.986816,1589.208862 1508.284424,1622.198364 
	C1508.897827,1637.792847 1509.204468,1653.399292 1509.650024,1671.000000 
M733.652405,1700.568237 
	C733.652527,1701.567993 733.628479,1702.568604 733.656372,1703.567505 
	C733.958984,1714.408447 736.680420,1717.233032 747.173523,1717.473755 
	C750.837341,1717.557861 754.506958,1717.569946 758.170105,1717.471558 
	C768.747009,1717.187500 771.645020,1714.279419 771.669495,1703.621094 
	C771.726929,1678.627319 771.809509,1653.632324 771.614685,1628.640015 
	C771.555481,1621.037476 771.255005,1613.333618 769.974121,1605.863281 
	C765.992920,1582.645020 755.281006,1563.232422 735.668152,1549.503174 
	C713.887207,1534.256226 689.668884,1530.334106 663.592957,1533.729370 
	C628.617371,1538.283447 598.468384,1563.963257 590.401917,1598.257446 
	C588.075684,1608.147095 588.114136,1618.668091 587.738281,1628.924316 
	C587.122375,1645.727783 592.159973,1661.161377 601.447876,1674.965088 
	C623.255432,1707.375610 655.018921,1718.915649 692.711243,1717.458252 
	C697.107361,1717.288330 700.531616,1715.213135 702.002197,1711.098511 
	C704.340576,1704.555664 706.757507,1697.954346 708.115784,1691.172607 
	C709.416077,1684.680420 706.688232,1681.930542 700.119812,1681.461060 
	C693.175476,1680.964600 686.225769,1680.530640 679.273499,1680.161011 
	C634.452026,1677.777710 612.926453,1629.928955 633.938721,1594.663818 
	C644.420593,1577.071899 660.872314,1569.164795 680.851379,1569.665527 
	C700.791626,1570.165405 716.626587,1578.595215 726.321655,1596.969116 
	C731.596619,1606.965942 733.399231,1617.708862 733.552673,1628.679443 
	C733.879028,1652.002563 733.652344,1675.333374 733.652405,1700.568237 
M1788.204712,1538.863281 
	C1772.901001,1544.776123 1760.410400,1554.486694 1750.712036,1567.589722 
	C1733.468750,1590.885986 1728.743652,1617.078369 1734.711548,1645.069214 
	C1739.310791,1666.640503 1750.642822,1684.277100 1768.621582,1697.430420 
	C1786.664917,1710.630981 1807.096313,1716.742920 1829.176025,1717.403931 
	C1844.155273,1717.852539 1859.164185,1717.230713 1874.150146,1717.548218 
	C1898.928589,1718.072876 1896.585693,1715.527954 1903.311890,1695.117432 
	C1906.425293,1685.669800 1902.904419,1681.520630 1892.776245,1681.461792 
	C1876.784546,1681.368896 1860.782715,1681.772583 1844.802979,1681.327637 
	C1832.558105,1680.986694 1820.223511,1680.332153 1808.567261,1675.834595 
	C1788.297485,1668.012939 1775.612549,1653.535156 1772.464478,1631.965698 
	C1769.287476,1610.197510 1776.148560,1591.509033 1794.320435,1578.644165 
	C1816.444824,1562.980957 1849.136230,1566.864136 1863.823242,1592.524292 
	C1872.384033,1607.481079 1872.169189,1622.946411 1864.927246,1638.429443 
	C1863.384277,1641.728027 1861.412231,1644.884277 1860.320435,1648.322876 
	C1858.346191,1654.540894 1860.759888,1657.869873 1867.395264,1658.119019 
	C1874.382080,1658.381470 1881.386353,1658.145264 1888.382568,1658.191650 
	C1893.561768,1658.225830 1896.987427,1655.837158 1899.577637,1651.349487 
	C1922.891846,1610.957275 1906.809082,1560.243286 1864.362061,1541.047485 
	C1839.897705,1529.983643 1814.917480,1529.913940 1788.204712,1538.863281 
M950.149109,1533.142090 
	C927.915894,1534.237793 908.734619,1542.762817 893.093018,1558.299438 
	C862.487610,1588.698730 858.981018,1641.428467 882.083740,1675.143677 
	C901.691833,1703.759155 930.167908,1715.964233 963.827576,1717.379272 
	C979.120605,1718.022095 994.470032,1717.196777 1009.781677,1717.556885 
	C1032.526245,1718.091797 1031.894043,1715.680664 1037.666870,1695.063232 
	C1040.465576,1685.067383 1037.408569,1681.539062 1026.985474,1681.466919 
	C1011.333130,1681.358521 995.662781,1681.874878 980.032166,1681.281860 
	C969.816406,1680.894287 959.368652,1680.137451 949.522766,1677.608032 
	C906.234314,1666.486694 895.835205,1620.788086 916.416748,1590.907959 
	C930.287537,1570.770386 958.942383,1563.560303 980.290283,1574.845337 
	C1001.082275,1585.836548 1009.959839,1610.674316 1001.341614,1634.148804 
	C999.745605,1638.495972 997.425232,1642.571777 995.669312,1646.866943 
	C992.645020,1654.264648 994.712769,1657.813354 1002.458740,1658.119263 
	C1009.441772,1658.395386 1016.448059,1658.037231 1023.436951,1658.225952 
	C1028.470215,1658.361938 1031.398682,1655.597290 1033.810181,1651.736816 
	C1049.565308,1626.516968 1048.072021,1590.085327 1029.859863,1566.148682 
	C1010.241638,1540.364014 983.210449,1531.309570 950.149109,1533.142090 
M345.244171,1468.133667 
	C342.983673,1464.059204 339.260345,1463.328125 335.009491,1463.408936 
	C328.345245,1463.535645 321.673950,1463.318359 315.010895,1463.473267 
	C306.148834,1463.679077 304.039124,1466.000122 303.636505,1474.892944 
	C302.864532,1491.944824 308.609344,1506.909668 318.258911,1520.567505 
	C330.073090,1537.289307 345.514374,1550.527466 360.473724,1564.244507 
	C373.735138,1576.404541 386.730774,1588.873535 394.559692,1605.535767 
	C404.960968,1627.672852 397.627014,1653.742310 378.465179,1666.542725 
	C365.988525,1674.877319 352.169373,1679.134155 337.182831,1679.411987 
	C328.185852,1679.578857 319.170074,1679.162231 310.187653,1679.564209 
	C301.360138,1679.959473 298.133575,1684.123169 299.996735,1692.677856 
	C301.263580,1698.494751 303.406555,1704.129883 305.299164,1709.799072 
	C306.980408,1714.835205 310.843414,1717.280151 315.927246,1717.401855 
	C337.913422,1717.928467 359.859528,1717.922241 380.955658,1710.251343 
	C397.184418,1704.350220 411.307617,1695.612427 422.550354,1682.088867 
	C444.828217,1655.290894 448.067780,1606.348633 423.783752,1574.125488 
	C410.278717,1556.205078 394.542572,1540.589478 377.867615,1525.730835 
	C361.001678,1510.701904 345.455444,1494.737793 345.244171,1468.133667 
M1661.146729,1609.992676 
	C1654.432495,1623.307373 1649.436157,1637.506226 1641.250366,1651.461426 
	C1626.287598,1618.720093 1611.909912,1587.665039 1597.895874,1556.446777 
	C1588.996460,1536.622192 1588.226440,1535.853882 1566.670532,1536.146240 
	C1565.337524,1536.164307 1563.993774,1536.056030 1562.672974,1536.187134 
	C1552.255981,1537.221802 1549.413818,1542.124268 1553.790771,1551.756104 
	C1557.090698,1559.017700 1560.546997,1566.209839 1564.027832,1573.387329 
	C1580.428711,1607.206299 1596.864868,1641.008179 1613.281982,1674.819458 
	C1618.945679,1686.483521 1624.579834,1698.162109 1630.248779,1709.823730 
	C1632.375366,1714.198608 1634.987427,1717.510254 1640.689941,1717.617676 
	C1646.484619,1717.726929 1648.588745,1714.597290 1650.808105,1709.951904 
	C1660.846924,1688.942017 1671.275757,1668.118286 1681.588135,1647.239258 
	C1696.322876,1617.406250 1711.105835,1587.597168 1725.788086,1557.738281 
	C1727.537109,1554.180908 1729.265503,1550.488281 1730.149536,1546.661255 
	C1731.373657,1541.361572 1729.543213,1538.519043 1723.992554,1537.336426 
	C1719.504517,1536.380127 1714.788818,1536.464111 1710.169678,1536.155518 
	C1699.757324,1535.459961 1692.852905,1539.411621 1688.565186,1549.604370 
	C1680.191650,1569.509888 1670.801392,1588.987549 1661.146729,1609.992676 
M568.297424,1681.439087 
	C559.689941,1680.984863 551.059509,1680.788208 542.479431,1680.026001 
	C520.971375,1678.114868 502.111664,1662.235352 496.709442,1641.317017 
	C490.817841,1618.504028 499.542786,1595.357056 516.432129,1583.891357 
	C527.818420,1576.161621 540.476990,1572.796509 554.182983,1573.507812 
	C577.934875,1574.740723 576.637756,1567.741333 576.307434,1550.754272 
	C576.094666,1539.810059 572.890198,1536.435547 561.856262,1536.257446 
	C554.257080,1536.134521 546.618164,1536.763428 539.037354,1537.481689 
	C466.255127,1544.376953 437.993805,1616.838257 467.015625,1671.627075 
	C487.066589,1709.480225 526.283386,1719.485352 561.010376,1717.298462 
	C566.293274,1716.965942 570.429626,1713.972290 572.138550,1708.615967 
	C573.851868,1703.245850 575.594727,1697.862793 576.859863,1692.378174 
	C578.108398,1686.965820 576.304199,1684.450073 568.297424,1681.439087 
M803.651855,1694.855469 
	C803.657349,1699.185303 803.458069,1703.527466 803.717834,1707.842041 
	C804.077332,1713.814941 807.004333,1716.978027 813.039001,1717.370972 
	C819.008667,1717.759888 825.045532,1717.781372 831.012329,1717.372314 
	C837.737000,1716.911133 841.019653,1713.263672 841.650513,1706.503052 
	C841.804626,1704.851685 841.687744,1703.174561 841.687744,1701.509277 
	C841.688538,1627.236328 841.693420,1552.963257 841.668213,1478.690308 
	C841.667297,1476.041504 841.874023,1473.231323 841.091797,1470.781128 
	C839.854126,1466.904663 837.730835,1463.465942 832.776855,1463.492920 
	C825.783569,1463.531128 818.774170,1463.207153 811.801697,1463.588257 
	C806.858765,1463.858521 804.004395,1467.020264 803.708618,1472.080322 
	C803.553345,1474.736328 803.653198,1477.407715 803.653137,1480.072144 
	C803.651489,1551.014526 803.651794,1621.956787 803.651855,1694.855469 
M1390.276733,1890.642822 
	C1396.616821,1908.755737 1402.957031,1926.868652 1409.271973,1944.909424 
	C1417.936646,1944.909424 1425.751221,1944.909424 1433.759766,1944.909424 
	C1433.759766,1912.887695 1433.759766,1881.465576 1433.759766,1849.797485 
	C1428.260376,1849.797485 1423.367554,1849.797485 1417.387085,1849.797485 
	C1417.387085,1872.720093 1417.387085,1895.230957 1417.387085,1917.741943 
	C1416.812988,1917.806152 1416.238892,1917.870483 1415.664795,1917.934814 
	C1407.747925,1895.143921 1399.830933,1872.353027 1392.094482,1850.081787 
	C1383.019287,1850.081787 1374.884766,1850.081787 1366.264404,1850.081787 
	C1366.524292,1882.222534 1365.850830,1913.650391 1366.669922,1944.904297 
	C1373.182495,1944.904297 1378.378052,1944.904297 1384.572510,1944.904297 
	C1384.572510,1922.718262 1384.572510,1901.108154 1384.572510,1879.498047 
	C1385.167114,1879.399658 1385.761719,1879.301392 1386.356323,1879.203003 
	C1387.539185,1882.511353 1388.722046,1885.819580 1390.276733,1890.642822 
M1252.477661,1920.101929 
	C1253.338501,1921.900635 1254.143433,1923.728638 1255.069214,1925.493408 
	C1261.974609,1938.655762 1272.651123,1945.686523 1287.715332,1946.263672 
	C1303.843262,1946.881226 1316.397217,1940.955322 1323.978027,1926.554199 
	C1334.276001,1906.991577 1334.332153,1887.037109 1323.642090,1867.622803 
	C1316.233643,1854.168091 1303.682617,1847.941895 1288.834595,1848.383423 
	C1273.151367,1848.849731 1260.875610,1856.453369 1254.154663,1871.163940 
	C1247.104004,1886.596191 1246.203857,1902.485718 1252.477661,1920.101929 
M791.729492,1854.408813 
	C785.066956,1859.075439 779.654846,1864.885620 776.564026,1872.457275 
	C769.431458,1889.930176 769.385498,1907.450806 777.676697,1924.524658 
	C785.093689,1939.798462 797.537109,1946.840088 814.659180,1946.289062 
	C831.098145,1945.759888 842.156128,1937.665771 848.948486,1923.269409 
	C854.336365,1911.850098 855.705566,1899.681641 853.637878,1887.288330 
	C847.935181,1853.109375 819.480164,1840.250977 791.729492,1854.408813 
M735.421631,1932.036987 
	C736.336792,1929.911865 737.492249,1927.855957 738.129028,1925.650513 
	C743.209656,1908.052856 735.868225,1895.423828 718.218018,1891.404175 
	C715.328857,1890.746216 712.329834,1890.583740 709.393860,1890.115234 
	C705.142090,1889.437012 700.859436,1888.873413 696.667847,1887.918823 
	C692.341553,1886.933472 689.089905,1883.600708 689.201660,1879.631958 
	C689.298096,1876.201782 691.393677,1871.970581 693.991699,1869.635742 
	C700.683350,1863.621704 711.479126,1864.555542 719.658325,1871.132324 
	C722.400574,1873.337280 724.795410,1875.974121 727.948853,1878.986450 
	C731.385254,1873.886597 734.447449,1869.342163 737.399048,1864.961670 
	C725.108826,1848.595337 703.203735,1843.552490 686.287415,1852.783447 
	C674.788147,1859.058472 669.205383,1872.444824 672.375671,1886.140991 
	C674.823608,1896.716553 683.552063,1903.041626 697.001648,1904.235474 
	C701.943176,1904.673950 706.888855,1905.314453 711.758484,1906.249390 
	C717.804810,1907.410156 721.632507,1911.070801 722.146912,1915.568604 
	C722.686462,1920.287109 719.020996,1925.394531 713.494324,1927.739868 
	C707.196167,1930.412720 701.032349,1929.662231 695.300781,1926.441895 
	C689.894165,1923.404297 684.820496,1919.773804 678.944946,1915.981079 
	C675.838440,1920.370605 672.682312,1924.830200 669.590576,1929.198853 
	C676.841797,1939.502563 686.964478,1944.052368 697.863525,1945.691162 
	C711.794739,1947.786011 725.267517,1946.094360 735.421631,1932.036987 
M1515.107056,1907.228149 
	C1519.968384,1909.246094 1522.576172,1912.836670 1521.859863,1918.127441 
	C1521.161621,1923.284302 1517.575806,1926.148926 1512.914795,1927.901611 
	C1502.437866,1931.841309 1494.239380,1926.579468 1486.135620,1921.203613 
	C1483.810547,1919.661377 1481.843384,1917.579834 1479.286377,1915.379150 
	C1475.678467,1920.518188 1472.670898,1924.802246 1469.747070,1928.967041 
	C1482.516113,1945.148071 1505.240601,1951.152832 1522.899780,1942.982300 
	C1535.057617,1937.357300 1540.519897,1926.154297 1539.553101,1914.812256 
	C1538.334839,1900.520874 1532.731689,1894.683228 1518.126587,1891.391968 
	C1515.236206,1890.740479 1512.239014,1890.575073 1509.301880,1890.115723 
	C1505.376587,1889.501587 1501.450195,1888.881714 1497.545288,1888.151245 
	C1492.263672,1887.163086 1489.112183,1883.412598 1488.830811,1878.585693 
	C1488.577637,1874.244873 1491.237549,1870.546387 1495.464600,1868.252197 
	C1503.295044,1864.002197 1512.594360,1865.176758 1520.396362,1871.829346 
	C1522.818970,1873.895142 1525.027466,1876.212280 1527.786743,1878.846436 
	C1531.314575,1873.802368 1534.455200,1869.312012 1537.392456,1865.112183 
	C1528.803833,1849.530029 1500.930786,1841.973633 1483.005371,1855.132446 
	C1473.543701,1862.077881 1469.241699,1873.900513 1472.417725,1886.157104 
	C1475.594482,1898.415527 1482.652832,1901.774048 1494.930542,1904.034424 
	C1501.111450,1905.172363 1507.404419,1905.702148 1515.107056,1907.228149 
M1008.367493,1896.857666 
	C1008.367493,1881.295898 1008.367493,1865.734131 1008.367493,1850.056885 
	C1002.340088,1850.056885 997.239807,1850.056885 991.634949,1850.056885 
	C991.634949,1871.691040 991.428528,1892.630615 991.699646,1913.563965 
	C991.920898,1930.653320 1004.718506,1944.676758 1020.773987,1946.146240 
	C1040.162720,1947.920776 1054.270264,1938.077026 1058.381836,1919.804199 
	C1059.031494,1916.916748 1059.633911,1913.940063 1059.649902,1911.001343 
	C1059.759644,1890.790161 1059.707520,1870.578125 1059.707520,1850.161133 
	C1053.445312,1850.161133 1048.050049,1850.161133 1042.291382,1850.161133 
	C1042.291382,1855.278564 1042.291626,1859.591675 1042.291504,1863.904907 
	C1042.290649,1879.209839 1042.456909,1894.517334 1042.234131,1909.818970 
	C1042.064453,1921.460449 1034.908569,1929.484375 1025.328857,1929.314209 
	C1016.139709,1929.150757 1007.417969,1920.174438 1008.317566,1909.774658 
	C1008.631836,1906.141968 1008.367615,1902.459229 1008.367493,1896.857666 
M1092.281372,1857.360596 
	C1092.467773,1860.198608 1092.654175,1863.036499 1092.883789,1866.533203 
	C1101.697876,1866.533203 1109.581421,1866.533203 1118.456909,1866.533203 
	C1118.456909,1893.037231 1118.456909,1918.829224 1118.456909,1944.892334 
	C1124.613159,1944.892334 1129.735229,1944.892334 1135.883301,1944.892334 
	C1135.883301,1918.500366 1135.883301,1892.717896 1135.883301,1866.153809 
	C1144.417603,1866.153809 1151.948730,1866.153809 1159.815430,1866.153809 
	C1159.815430,1860.229248 1159.815430,1855.124756 1159.815430,1850.000488 
	C1137.105957,1850.000488 1114.964355,1850.000488 1092.613281,1850.000488 
	C1092.477661,1852.288330 1092.380249,1853.932495 1092.281372,1857.360596 
M907.746399,1918.787720 
	C907.746399,1895.919922 907.746399,1873.052246 907.746399,1849.842529 
	C901.450806,1849.842529 896.258972,1849.842529 890.915649,1849.842529 
	C890.915649,1881.821899 890.915649,1913.259644 890.915649,1944.897339 
	C913.384521,1944.897339 935.185669,1944.897339 957.096863,1944.897339 
	C957.096863,1939.082642 957.096863,1933.952393 957.096863,1927.755615 
	C940.341492,1927.755615 924.206055,1927.755615 907.746765,1927.755615 
	C907.746765,1924.692139 907.746765,1922.714111 907.746399,1918.787720 
M1212.337769,1881.004761 
	C1212.337769,1870.767578 1212.337769,1860.530396 1212.337769,1850.194824 
	C1206.238892,1850.194824 1201.187012,1850.194824 1196.178467,1850.194824 
	C1196.178467,1882.120483 1196.178467,1913.298950 1196.178467,1944.974243 
	C1201.509277,1944.974243 1206.330444,1944.974243 1212.337891,1944.974243 
	C1212.337891,1924.080078 1212.337891,1903.541260 1212.337769,1881.004761 
z"/>
<path fill="#0026FD" opacity="1.000000" stroke="none" 
	d="
M2224.593994,429.339905 
	C2274.913574,467.195557 2308.206055,515.423706 2320.741455,576.905945 
	C2327.846924,611.756470 2325.106934,646.493530 2315.635254,680.481201 
	C2296.921875,747.634094 2260.451172,803.192993 2204.704346,845.547546 
	C2176.649902,866.862183 2145.140381,880.414673 2110.157715,885.252258 
	C2099.990967,886.658081 2089.654541,886.996399 2079.379150,887.418213 
	C2059.122314,888.249573 2038.829102,888.376648 2018.595459,889.557495 
	C1985.833496,891.469604 1955.659058,902.262024 1926.958374,917.673645 
	C1911.080322,926.199768 1895.657593,935.554810 1882.706177,948.116882 
	C1871.511841,958.974670 1861.236938,970.807861 1850.886475,982.502563 
	C1827.107300,1009.369873 1803.594604,1036.472900 1779.853516,1063.374268 
	C1751.270264,1095.762451 1722.628662,1128.099854 1693.891357,1160.351440 
	C1657.407227,1201.297729 1620.770020,1242.107666 1584.266602,1283.036865 
	C1572.545410,1296.179321 1561.232422,1309.689209 1549.380371,1322.710327 
	C1537.204956,1336.086670 1522.939087,1347.098999 1507.563721,1356.496826 
	C1473.578369,1377.269165 1436.633911,1389.580933 1397.014648,1393.725342 
	C1366.924561,1396.872803 1337.321289,1394.931763 1308.841431,1383.906616 
	C1279.978394,1372.733276 1263.222046,1351.457153 1258.364014,1321.038696 
	C1256.957031,1312.228638 1256.425293,1303.192871 1256.413208,1294.259277 
	C1256.280151,1196.603027 1256.260742,1098.946167 1256.390137,1001.289856 
	C1256.414795,982.681152 1257.553345,964.072510 1257.497314,945.465881 
	C1257.476685,938.625183 1255.862915,931.704407 1254.320435,924.970337 
	C1250.855347,909.842712 1237.069580,899.609863 1219.647827,901.756592 
	C1213.108154,902.562317 1206.522583,904.025940 1200.300293,906.179016 
	C1183.355103,912.042419 1166.433594,918.036865 1149.794678,924.707703 
	C1123.516479,935.243286 1103.126831,953.654663 1084.645020,974.585144 
	C1072.765625,988.038391 1060.304321,1000.976990 1048.146851,1014.185730 
	C1025.847778,1038.412598 1003.489136,1062.585571 981.325500,1086.936035 
	C959.843933,1110.537231 938.141602,1133.958374 917.312012,1158.127319 
	C882.181885,1198.889160 847.669800,1240.183472 812.887024,1281.244751 
	C799.565125,1296.971313 787.086365,1313.528076 772.697083,1328.210571 
	C741.201050,1360.348755 702.498535,1378.987793 658.037842,1385.979858 
	C635.252991,1389.563110 612.332031,1390.248901 589.423584,1389.270508 
	C572.236572,1388.536499 555.057251,1386.528687 537.996765,1384.194336 
	C515.220886,1381.078125 499.983765,1367.836548 491.356964,1346.779297 
	C486.792114,1335.636963 483.893616,1324.041992 483.716248,1311.972534 
	C483.148895,1273.368042 482.503418,1234.761597 482.389221,1196.154419 
	C482.180237,1125.495728 482.274231,1054.835815 482.389496,984.176697 
	C482.406799,973.567139 483.535980,962.960632 483.593628,952.349670 
	C483.672791,937.778442 479.816406,924.182617 472.568695,911.462158 
	C463.198700,895.016968 447.876465,887.353088 430.410645,884.373718 
	C411.158844,881.089600 391.608063,879.464722 372.147003,877.523010 
	C343.378601,874.652405 314.703247,871.655396 287.479614,860.832031 
	C260.555237,850.127625 236.854294,834.628906 215.608475,814.975708 
	C181.478775,783.404480 156.863220,745.712280 141.231567,702.018372 
	C131.737869,675.481384 127.454948,648.265564 127.423965,619.970764 
	C127.383263,582.798096 137.007767,548.340820 153.492859,515.613464 
	C171.615173,479.635834 197.578003,450.010406 230.023178,426.248108 
	C271.644562,395.765320 317.881683,376.550018 369.539612,371.974823 
	C406.838318,368.671326 443.382385,372.263733 476.862640,390.552185 
	C522.349243,415.398987 552.538269,452.474152 564.079285,503.735992 
	C568.333191,522.630554 570.305969,541.942932 569.327881,561.056519 
	C567.720215,592.477051 564.267395,623.821594 560.953674,655.130554 
	C558.371826,679.524658 554.679810,703.799377 551.743530,728.158752 
	C549.602295,745.922913 547.639160,763.716614 546.066223,781.538635 
	C544.893250,794.828857 545.280762,808.059387 549.850159,820.914307 
	C556.221130,838.837646 572.932556,848.774658 591.615112,844.966309 
	C613.271973,840.551636 630.958252,828.704224 645.790833,813.045654 
	C669.561157,787.951538 692.580383,762.142517 715.767212,736.500122 
	C739.837402,709.880676 763.868164,683.222900 787.663513,656.358154 
	C815.864502,624.519470 843.828491,592.470520 871.830811,560.456421 
	C888.020264,541.947632 904.085144,523.329834 920.201965,504.757446 
	C954.432556,465.311371 994.715637,434.057465 1042.169800,411.677216 
	C1072.393433,397.423157 1103.294434,385.753784 1135.958862,378.900604 
	C1170.331909,371.688873 1205.131348,370.281342 1240.129028,371.915741 
	C1253.115967,372.522217 1265.935791,373.931976 1278.341675,378.032684 
	C1306.317017,387.279755 1320.242065,405.423096 1321.630005,434.733673 
	C1322.086426,444.372650 1322.297363,454.032135 1322.301147,463.682312 
	C1322.346313,576.003967 1322.265625,688.325806 1322.474731,800.647095 
	C1322.488770,808.166626 1323.715698,815.938721 1325.865845,823.149841 
	C1331.352051,841.549927 1347.492310,850.538757 1366.219849,846.507080 
	C1389.975220,841.392883 1409.148193,828.559143 1424.404419,810.196838 
	C1456.686890,771.341736 1488.495361,732.092102 1520.416016,692.937317 
	C1552.135132,654.029541 1583.963989,615.249146 1618.415161,578.653870 
	C1660.111328,534.362305 1704.843872,493.809814 1756.990601,462.040314 
	C1805.962280,432.205170 1856.695923,406.075592 1912.044189,389.942078 
	C1943.710571,380.711639 1975.889038,374.974701 2008.968750,373.248505 
	C2067.045410,370.217896 2122.676758,380.214874 2176.277832,402.107941 
	C2193.225830,409.030212 2209.311279,417.824799 2224.593994,429.339905 
z"/>
<path fill="#0127FD" opacity="1.000000" stroke="none" 
	d="
M2617.870605,348.251465 
	C2564.085449,367.751129 2515.918213,395.559906 2474.021240,433.461456 
	C2426.658447,476.307617 2392.503174,527.868530 2374.870361,589.743652 
	C2374.346191,591.582336 2373.760254,593.403442 2372.707520,596.858765 
	C2336.495605,464.681335 2254.223145,379.136292 2122.441895,341.369934 
	C2244.719482,305.735016 2337.775391,218.723862 2376.999512,94.650475 
	C2421.643555,216.338699 2503.031250,300.835388 2625.725342,345.116241 
	C2622.841797,346.319336 2620.716797,347.205841 2617.870605,348.251465 
z"/>
<path fill="#0429FD" opacity="1.000000" stroke="none" 
	d="
M1151.907959,1683.954468 
	C1148.444336,1693.049072 1145.201050,1701.408447 1141.920044,1709.752930 
	C1139.261230,1716.514771 1137.040649,1718.103516 1131.171875,1718.211792 
	C1125.280029,1718.320435 1122.023315,1715.298828 1120.087158,1710.030029 
	C1110.235718,1683.220581 1100.252319,1656.459717 1090.400269,1629.650513 
	C1072.641235,1581.324951 1055.082886,1532.924927 1037.145386,1484.665894 
	C1030.564331,1466.959961 1032.659912,1462.245361 1052.249512,1463.416870 
	C1054.905396,1463.575806 1057.579224,1463.412476 1060.244263,1463.443848 
	C1070.452393,1463.563965 1072.576782,1465.011230 1076.232422,1474.977661 
	C1093.618408,1522.377563 1110.948364,1569.798218 1128.324097,1617.201904 
	C1129.575195,1620.615479 1131.034058,1623.952881 1132.976929,1628.763062 
	C1136.761719,1619.497803 1140.179810,1611.476074 1143.333252,1603.351807 
	C1160.155884,1560.009521 1176.899658,1516.636475 1193.708984,1473.288940 
	C1195.641602,1468.305054 1197.405518,1463.384399 1204.426880,1463.344238 
	C1212.630737,1463.297485 1214.343628,1464.008545 1217.565918,1472.370605 
	C1231.653442,1508.929321 1245.682373,1545.510376 1259.740112,1582.080566 
	C1265.554321,1597.205444 1271.387207,1612.322998 1278.052368,1629.627075 
	C1281.794067,1619.872803 1284.885498,1612.158325 1287.725708,1604.352295 
	C1303.282837,1561.595581 1318.756958,1518.808716 1334.309937,1476.050415 
	C1338.177124,1465.418823 1341.130981,1463.491333 1352.846436,1463.443359 
	C1357.843872,1463.422852 1362.854492,1463.227417 1367.835938,1463.513550 
	C1374.669312,1463.906250 1376.681885,1466.143555 1376.251221,1473.009155 
	C1376.068726,1475.918091 1375.166992,1478.859619 1374.156616,1481.627197 
	C1353.544067,1538.098022 1332.854736,1594.540771 1312.213135,1651.000977 
	C1305.256104,1670.030396 1298.413086,1689.101562 1291.463867,1708.133911 
	C1289.433105,1713.695923 1286.668335,1718.376831 1279.571289,1718.222290 
	C1273.412231,1718.088257 1271.080933,1716.706177 1268.555176,1710.170166 
	C1260.294800,1688.793579 1252.152832,1667.371094 1243.906372,1645.989014 
	C1231.953003,1614.994995 1219.956787,1584.017456 1207.937744,1553.048828 
	C1207.372803,1551.592896 1206.407715,1550.291992 1205.167480,1548.104980 
	C1187.249023,1593.735229 1169.680542,1638.474121 1151.907959,1683.954468 
z"/>
<path fill="#042AFD" opacity="1.000000" stroke="none" 
	d="
M1509.650024,1670.000244 
	C1509.204468,1653.399292 1508.897827,1637.792847 1508.284424,1622.198364 
	C1506.986816,1589.208862 1483.406860,1567.918335 1451.940918,1569.622681 
	C1420.766602,1571.311401 1399.720459,1596.428101 1401.725586,1628.641846 
	C1403.410034,1655.705811 1425.363770,1678.000610 1452.518433,1680.109497 
	C1460.116455,1680.699585 1467.738770,1680.971313 1475.345459,1681.459229 
	C1482.633911,1681.926636 1485.201904,1684.597168 1483.651001,1691.620850 
	C1482.154053,1698.398926 1479.648438,1704.971191 1477.340210,1711.547607 
	C1475.808960,1715.910767 1472.007690,1717.186401 1467.802490,1717.462646 
	C1426.822021,1720.154175 1387.249390,1700.930176 1370.994751,1664.238647 
	C1346.633667,1609.249023 1374.977295,1539.821289 1444.201660,1533.330200 
	C1470.436768,1530.870361 1494.346436,1535.845093 1515.205200,1552.469360 
	C1533.270264,1566.866943 1542.994507,1586.155396 1545.932617,1608.676758 
	C1547.471313,1620.471680 1547.461670,1632.503540 1547.622192,1644.435547 
	C1547.877563,1663.416870 1547.710571,1682.404175 1547.683350,1701.389038 
	C1547.664307,1714.680542 1544.800049,1717.442749 1531.146240,1717.489258 
	C1527.815552,1717.500610 1524.480469,1717.598999 1521.155029,1717.465942 
	C1512.647949,1717.125610 1509.805420,1714.400146 1509.691162,1705.971558 
	C1509.533325,1694.316284 1509.650513,1682.657349 1509.650024,1670.000244 
z"/>
<path fill="#0429FD" opacity="1.000000" stroke="none" 
	d="
M733.652344,1699.614624 
	C733.652344,1675.333374 733.879028,1652.002563 733.552673,1628.679443 
	C733.399231,1617.708862 731.596619,1606.965942 726.321655,1596.969116 
	C716.626587,1578.595215 700.791626,1570.165405 680.851379,1569.665527 
	C660.872314,1569.164795 644.420593,1577.071899 633.938721,1594.663818 
	C612.926453,1629.928955 634.452026,1677.777710 679.273499,1680.161011 
	C686.225769,1680.530640 693.175476,1680.964600 700.119812,1681.461060 
	C706.688232,1681.930542 709.416077,1684.680420 708.115784,1691.172607 
	C706.757507,1697.954346 704.340576,1704.555664 702.002197,1711.098511 
	C700.531616,1715.213135 697.107361,1717.288330 692.711243,1717.458252 
	C655.018921,1718.915649 623.255432,1707.375610 601.447876,1674.965088 
	C592.159973,1661.161377 587.122375,1645.727783 587.738281,1628.924316 
	C588.114136,1618.668091 588.075684,1608.147095 590.401917,1598.257446 
	C598.468384,1563.963257 628.617371,1538.283447 663.592957,1533.729370 
	C689.668884,1530.334106 713.887207,1534.256226 735.668152,1549.503174 
	C755.281006,1563.232422 765.992920,1582.645020 769.974121,1605.863281 
	C771.255005,1613.333618 771.555481,1621.037476 771.614685,1628.640015 
	C771.809509,1653.632324 771.726929,1678.627319 771.669495,1703.621094 
	C771.645020,1714.279419 768.747009,1717.187500 758.170105,1717.471558 
	C754.506958,1717.569946 750.837341,1717.557861 747.173523,1717.473755 
	C736.680420,1717.233032 733.958984,1714.408447 733.656372,1703.567505 
	C733.628479,1702.568604 733.652527,1701.567993 733.652344,1699.614624 
z"/>
<path fill="#042AFD" opacity="1.000000" stroke="none" 
	d="
M1788.940918,1538.566650 
	C1814.917480,1529.913940 1839.897705,1529.983643 1864.362061,1541.047485 
	C1906.809082,1560.243286 1922.891846,1610.957275 1899.577637,1651.349487 
	C1896.987427,1655.837158 1893.561768,1658.225830 1888.382568,1658.191650 
	C1881.386353,1658.145264 1874.382080,1658.381470 1867.395264,1658.119019 
	C1860.759888,1657.869873 1858.346191,1654.540894 1860.320435,1648.322876 
	C1861.412231,1644.884277 1863.384277,1641.728027 1864.927246,1638.429443 
	C1872.169189,1622.946411 1872.384033,1607.481079 1863.823242,1592.524292 
	C1849.136230,1566.864136 1816.444824,1562.980957 1794.320435,1578.644165 
	C1776.148560,1591.509033 1769.287476,1610.197510 1772.464478,1631.965698 
	C1775.612549,1653.535156 1788.297485,1668.012939 1808.567261,1675.834595 
	C1820.223511,1680.332153 1832.558105,1680.986694 1844.802979,1681.327637 
	C1860.782715,1681.772583 1876.784546,1681.368896 1892.776245,1681.461792 
	C1902.904419,1681.520630 1906.425293,1685.669800 1903.311890,1695.117432 
	C1896.585693,1715.527954 1898.928589,1718.072876 1874.150146,1717.548218 
	C1859.164185,1717.230713 1844.155273,1717.852539 1829.176025,1717.403931 
	C1807.096313,1716.742920 1786.664917,1710.630981 1768.621582,1697.430420 
	C1750.642822,1684.277100 1739.310791,1666.640503 1734.711548,1645.069214 
	C1728.743652,1617.078369 1733.468750,1590.885986 1750.712036,1567.589722 
	C1760.410400,1554.486694 1772.901001,1544.776123 1788.940918,1538.566650 
z"/>
<path fill="#0429FD" opacity="1.000000" stroke="none" 
	d="
M950.995239,1532.862305 
	C983.210449,1531.309570 1010.241638,1540.364014 1029.859863,1566.148682 
	C1048.072021,1590.085327 1049.565308,1626.516968 1033.810181,1651.736816 
	C1031.398682,1655.597290 1028.470215,1658.361938 1023.436951,1658.225952 
	C1016.448059,1658.037231 1009.441772,1658.395386 1002.458740,1658.119263 
	C994.712769,1657.813354 992.645020,1654.264648 995.669312,1646.866943 
	C997.425232,1642.571777 999.745605,1638.495972 1001.341614,1634.148804 
	C1009.959839,1610.674316 1001.082275,1585.836548 980.290283,1574.845337 
	C958.942383,1563.560303 930.287537,1570.770386 916.416748,1590.907959 
	C895.835205,1620.788086 906.234314,1666.486694 949.522766,1677.608032 
	C959.368652,1680.137451 969.816406,1680.894287 980.032166,1681.281860 
	C995.662781,1681.874878 1011.333130,1681.358521 1026.985474,1681.466919 
	C1037.408569,1681.539062 1040.465576,1685.067383 1037.666870,1695.063232 
	C1031.894043,1715.680664 1032.526245,1718.091797 1009.781677,1717.556885 
	C994.470032,1717.196777 979.120605,1718.022095 963.827576,1717.379272 
	C930.167908,1715.964233 901.691833,1703.759155 882.083740,1675.143677 
	C858.981018,1641.428467 862.487610,1588.698730 893.093018,1558.299438 
	C908.734619,1542.762817 927.915894,1534.237793 950.995239,1532.862305 
z"/>
<path fill="#0329FD" opacity="1.000000" stroke="none" 
	d="
M345.546936,1468.944092 
	C345.455444,1494.737793 361.001678,1510.701904 377.867615,1525.730835 
	C394.542572,1540.589478 410.278717,1556.205078 423.783752,1574.125488 
	C448.067780,1606.348633 444.828217,1655.290894 422.550354,1682.088867 
	C411.307617,1695.612427 397.184418,1704.350220 380.955658,1710.251343 
	C359.859528,1717.922241 337.913422,1717.928467 315.927246,1717.401855 
	C310.843414,1717.280151 306.980408,1714.835205 305.299164,1709.799072 
	C303.406555,1704.129883 301.263580,1698.494751 299.996735,1692.677856 
	C298.133575,1684.123169 301.360138,1679.959473 310.187653,1679.564209 
	C319.170074,1679.162231 328.185852,1679.578857 337.182831,1679.411987 
	C352.169373,1679.134155 365.988525,1674.877319 378.465179,1666.542725 
	C397.627014,1653.742310 404.960968,1627.672852 394.559692,1605.535767 
	C386.730774,1588.873535 373.735138,1576.404541 360.473724,1564.244507 
	C345.514374,1550.527466 330.073090,1537.289307 318.258911,1520.567505 
	C308.609344,1506.909668 302.864532,1491.944824 303.636505,1474.892944 
	C304.039124,1466.000122 306.148834,1463.679077 315.010895,1463.473267 
	C321.673950,1463.318359 328.345245,1463.535645 335.009491,1463.408936 
	C339.260345,1463.328125 342.983673,1464.059204 345.546936,1468.944092 
z"/>
<path fill="#052AFD" opacity="1.000000" stroke="none" 
	d="
M1661.489258,1609.317383 
	C1670.801392,1588.987549 1680.191650,1569.509888 1688.565186,1549.604370 
	C1692.852905,1539.411621 1699.757324,1535.459961 1710.169678,1536.155518 
	C1714.788818,1536.464111 1719.504517,1536.380127 1723.992554,1537.336426 
	C1729.543213,1538.519043 1731.373657,1541.361572 1730.149536,1546.661255 
	C1729.265503,1550.488281 1727.537109,1554.180908 1725.788086,1557.738281 
	C1711.105835,1587.597168 1696.322876,1617.406250 1681.588135,1647.239258 
	C1671.275757,1668.118286 1660.846924,1688.942017 1650.808105,1709.951904 
	C1648.588745,1714.597290 1646.484619,1717.726929 1640.689941,1717.617676 
	C1634.987427,1717.510254 1632.375366,1714.198608 1630.248779,1709.823730 
	C1624.579834,1698.162109 1618.945679,1686.483521 1613.281982,1674.819458 
	C1596.864868,1641.008179 1580.428711,1607.206299 1564.027832,1573.387329 
	C1560.546997,1566.209839 1557.090698,1559.017700 1553.790771,1551.756104 
	C1549.413818,1542.124268 1552.255981,1537.221802 1562.672974,1536.187134 
	C1563.993774,1536.056030 1565.337524,1536.164307 1566.670532,1536.146240 
	C1588.226440,1535.853882 1588.996460,1536.622192 1597.895874,1556.446777 
	C1611.909912,1587.665039 1626.287598,1618.720093 1641.250366,1651.461426 
	C1649.436157,1637.506226 1654.432495,1623.307373 1661.489258,1609.317383 
z"/>
<path fill="#042AFD" opacity="1.000000" stroke="none" 
	d="
M569.171936,1681.456543 
	C576.304199,1684.450073 578.108398,1686.965820 576.859863,1692.378174 
	C575.594727,1697.862793 573.851868,1703.245850 572.138550,1708.615967 
	C570.429626,1713.972290 566.293274,1716.965942 561.010376,1717.298462 
	C526.283386,1719.485352 487.066589,1709.480225 467.015625,1671.627075 
	C437.993805,1616.838257 466.255127,1544.376953 539.037354,1537.481689 
	C546.618164,1536.763428 554.257080,1536.134521 561.856262,1536.257446 
	C572.890198,1536.435547 576.094666,1539.810059 576.307434,1550.754272 
	C576.637756,1567.741333 577.934875,1574.740723 554.182983,1573.507812 
	C540.476990,1572.796509 527.818420,1576.161621 516.432129,1583.891357 
	C499.542786,1595.357056 490.817841,1618.504028 496.709442,1641.317017 
	C502.111664,1662.235352 520.971375,1678.114868 542.479431,1680.026001 
	C551.059509,1680.788208 559.689941,1680.984863 569.171936,1681.456543 
z"/>
<path fill="#0429FD" opacity="1.000000" stroke="none" 
	d="
M803.651855,1693.877319 
	C803.651794,1621.956787 803.651489,1551.014526 803.653137,1480.072144 
	C803.653198,1477.407715 803.553345,1474.736328 803.708618,1472.080322 
	C804.004395,1467.020264 806.858765,1463.858521 811.801697,1463.588257 
	C818.774170,1463.207153 825.783569,1463.531128 832.776855,1463.492920 
	C837.730835,1463.465942 839.854126,1466.904663 841.091797,1470.781128 
	C841.874023,1473.231323 841.667297,1476.041504 841.668213,1478.690308 
	C841.693420,1552.963257 841.688538,1627.236328 841.687744,1701.509277 
	C841.687744,1703.174561 841.804626,1704.851685 841.650513,1706.503052 
	C841.019653,1713.263672 837.737000,1716.911133 831.012329,1717.372314 
	C825.045532,1717.781372 819.008667,1717.759888 813.039001,1717.370972 
	C807.004333,1716.978027 804.077332,1713.814941 803.717834,1707.842041 
	C803.458069,1703.527466 803.657349,1699.185303 803.651855,1693.877319 
z"/>
<path fill="#062CFD" opacity="1.000000" stroke="none" 
	d="
M1390.090820,1889.885254 
	C1388.722046,1885.819580 1387.539185,1882.511353 1386.356323,1879.203003 
	C1385.761719,1879.301392 1385.167114,1879.399658 1384.572510,1879.498047 
	C1384.572510,1901.108154 1384.572510,1922.718262 1384.572510,1944.904297 
	C1378.378052,1944.904297 1373.182495,1944.904297 1366.669922,1944.904297 
	C1365.850830,1913.650391 1366.524292,1882.222534 1366.264404,1850.081787 
	C1374.884766,1850.081787 1383.019287,1850.081787 1392.094482,1850.081787 
	C1399.830933,1872.353027 1407.747925,1895.143921 1415.664795,1917.934814 
	C1416.238892,1917.870483 1416.812988,1917.806152 1417.387085,1917.741943 
	C1417.387085,1895.230957 1417.387085,1872.720093 1417.387085,1849.797485 
	C1423.367554,1849.797485 1428.260376,1849.797485 1433.759766,1849.797485 
	C1433.759766,1881.465576 1433.759766,1912.887695 1433.759766,1944.909424 
	C1425.751221,1944.909424 1417.936646,1944.909424 1409.271973,1944.909424 
	C1402.957031,1926.868652 1396.616821,1908.755737 1390.090820,1889.885254 
z"/>
<path fill="#082DFD" opacity="1.000000" stroke="none" 
	d="
M1252.272705,1919.340576 
	C1246.203857,1902.485718 1247.104004,1886.596191 1254.154663,1871.163940 
	C1260.875610,1856.453369 1273.151367,1848.849731 1288.834595,1848.383423 
	C1303.682617,1847.941895 1316.233643,1854.168091 1323.642090,1867.622803 
	C1334.332153,1887.037109 1334.276001,1906.991577 1323.978027,1926.554199 
	C1316.397217,1940.955322 1303.843262,1946.881226 1287.715332,1946.263672 
	C1272.651123,1945.686523 1261.974609,1938.655762 1255.069214,1925.493408 
	C1254.143433,1923.728638 1253.338501,1921.900635 1252.272705,1919.340576 
M1307.530884,1920.290283 
	C1315.712646,1906.371704 1316.827759,1892.037476 1309.093628,1877.694824 
	C1300.783691,1862.284424 1281.374878,1861.585449 1271.722778,1876.123535 
	C1264.392456,1887.164795 1263.944824,1899.160400 1267.921997,1911.343262 
	C1274.201294,1930.578247 1291.462402,1934.993774 1307.530884,1920.290283 
z"/>
<path fill="#082DFD" opacity="1.000000" stroke="none" 
	d="
M792.363464,1854.010742 
	C819.480164,1840.250977 847.935181,1853.109375 853.637878,1887.288330 
	C855.705566,1899.681641 854.336365,1911.850098 848.948486,1923.269409 
	C842.156128,1937.665771 831.098145,1945.759888 814.659180,1946.289062 
	C797.537109,1946.840088 785.093689,1939.798462 777.676697,1924.524658 
	C769.385498,1907.450806 769.431458,1889.930176 776.564026,1872.457275 
	C779.654846,1864.885620 785.066956,1859.075439 792.363464,1854.010742 
M799.878601,1870.466919 
	C786.172913,1882.841187 785.310425,1904.041626 794.566833,1918.739380 
	C803.687622,1933.221802 822.496948,1933.271606 831.422974,1918.661133 
	C838.390442,1907.256592 839.203003,1895.066772 834.273804,1882.542236 
	C828.055603,1866.742676 816.490784,1862.155151 799.878601,1870.466919 
z"/>
<path fill="#092DFD" opacity="1.000000" stroke="none" 
	d="
M734.954712,1932.622925 
	C725.267517,1946.094360 711.794739,1947.786011 697.863525,1945.691162 
	C686.964478,1944.052368 676.841797,1939.502563 669.590576,1929.198853 
	C672.682312,1924.830200 675.838440,1920.370605 678.944946,1915.981079 
	C684.820496,1919.773804 689.894165,1923.404297 695.300781,1926.441895 
	C701.032349,1929.662231 707.196167,1930.412720 713.494324,1927.739868 
	C719.020996,1925.394531 722.686462,1920.287109 722.146912,1915.568604 
	C721.632507,1911.070801 717.804810,1907.410156 711.758484,1906.249390 
	C706.888855,1905.314453 701.943176,1904.673950 697.001648,1904.235474 
	C683.552063,1903.041626 674.823608,1896.716553 672.375671,1886.140991 
	C669.205383,1872.444824 674.788147,1859.058472 686.287415,1852.783447 
	C703.203735,1843.552490 725.108826,1848.595337 737.399048,1864.961670 
	C734.447449,1869.342163 731.385254,1873.886597 727.948853,1878.986450 
	C724.795410,1875.974121 722.400574,1873.337280 719.658325,1871.132324 
	C711.479126,1864.555542 700.683350,1863.621704 693.991699,1869.635742 
	C691.393677,1871.970581 689.298096,1876.201782 689.201660,1879.631958 
	C689.089905,1883.600708 692.341553,1886.933472 696.667847,1887.918823 
	C700.859436,1888.873413 705.142090,1889.437012 709.393860,1890.115234 
	C712.329834,1890.583740 715.328857,1890.746216 718.218018,1891.404175 
	C735.868225,1895.423828 743.209656,1908.052856 738.129028,1925.650513 
	C737.492249,1927.855957 736.336792,1929.911865 734.954712,1932.622925 
z"/>
<path fill="#092DFD" opacity="1.000000" stroke="none" 
	d="
M1514.376953,1906.867432 
	C1507.404419,1905.702148 1501.111450,1905.172363 1494.930542,1904.034424 
	C1482.652832,1901.774048 1475.594482,1898.415527 1472.417725,1886.157104 
	C1469.241699,1873.900513 1473.543701,1862.077881 1483.005371,1855.132446 
	C1500.930786,1841.973633 1528.803833,1849.530029 1537.392456,1865.112183 
	C1534.455200,1869.312012 1531.314575,1873.802368 1527.786743,1878.846436 
	C1525.027466,1876.212280 1522.818970,1873.895142 1520.396362,1871.829346 
	C1512.594360,1865.176758 1503.295044,1864.002197 1495.464600,1868.252197 
	C1491.237549,1870.546387 1488.577637,1874.244873 1488.830811,1878.585693 
	C1489.112183,1883.412598 1492.263672,1887.163086 1497.545288,1888.151245 
	C1501.450195,1888.881714 1505.376587,1889.501587 1509.301880,1890.115723 
	C1512.239014,1890.575073 1515.236206,1890.740479 1518.126587,1891.391968 
	C1532.731689,1894.683228 1538.334839,1900.520874 1539.553101,1914.812256 
	C1540.519897,1926.154297 1535.057617,1937.357300 1522.899780,1942.982300 
	C1505.240601,1951.152832 1482.516113,1945.148071 1469.747070,1928.967041 
	C1472.670898,1924.802246 1475.678467,1920.518188 1479.286377,1915.379150 
	C1481.843384,1917.579834 1483.810547,1919.661377 1486.135620,1921.203613 
	C1494.239380,1926.579468 1502.437866,1931.841309 1512.914795,1927.901611 
	C1517.575806,1926.148926 1521.161621,1923.284302 1521.859863,1918.127441 
	C1522.576172,1912.836670 1519.968384,1909.246094 1514.376953,1906.867432 
z"/>
<path fill="#082DFD" opacity="1.000000" stroke="none" 
	d="
M1008.367554,1897.828491 
	C1008.367615,1902.459229 1008.631836,1906.141968 1008.317566,1909.774658 
	C1007.417969,1920.174438 1016.139709,1929.150757 1025.328857,1929.314209 
	C1034.908569,1929.484375 1042.064453,1921.460449 1042.234131,1909.818970 
	C1042.456909,1894.517334 1042.290649,1879.209839 1042.291504,1863.904907 
	C1042.291626,1859.591675 1042.291382,1855.278564 1042.291382,1850.161133 
	C1048.050049,1850.161133 1053.445312,1850.161133 1059.707520,1850.161133 
	C1059.707520,1870.578125 1059.759644,1890.790161 1059.649902,1911.001343 
	C1059.633911,1913.940063 1059.031494,1916.916748 1058.381836,1919.804199 
	C1054.270264,1938.077026 1040.162720,1947.920776 1020.773987,1946.146240 
	C1004.718506,1944.676758 991.920898,1930.653320 991.699646,1913.563965 
	C991.428528,1892.630615 991.634949,1871.691040 991.634949,1850.056885 
	C997.239807,1850.056885 1002.340088,1850.056885 1008.367493,1850.056885 
	C1008.367493,1865.734131 1008.367493,1881.295898 1008.367554,1897.828491 
z"/>
<path fill="#092FFD" opacity="1.000000" stroke="none" 
	d="
M1092.281982,1856.468628 
	C1092.380249,1853.932495 1092.477661,1852.288330 1092.613281,1850.000488 
	C1114.964355,1850.000488 1137.105957,1850.000488 1159.815430,1850.000488 
	C1159.815430,1855.124756 1159.815430,1860.229248 1159.815430,1866.153809 
	C1151.948730,1866.153809 1144.417603,1866.153809 1135.883301,1866.153809 
	C1135.883301,1892.717896 1135.883301,1918.500366 1135.883301,1944.892334 
	C1129.735229,1944.892334 1124.613159,1944.892334 1118.456909,1944.892334 
	C1118.456909,1918.829224 1118.456909,1893.037231 1118.456909,1866.533203 
	C1109.581421,1866.533203 1101.697876,1866.533203 1092.883789,1866.533203 
	C1092.654175,1863.036499 1092.467773,1860.198608 1092.281982,1856.468628 
z"/>
<path fill="#0F33FD" opacity="1.000000" stroke="none" 
	d="
M907.746582,1919.761963 
	C907.746765,1922.714111 907.746765,1924.692139 907.746765,1927.755615 
	C924.206055,1927.755615 940.341492,1927.755615 957.096863,1927.755615 
	C957.096863,1933.952393 957.096863,1939.082642 957.096863,1944.897339 
	C935.185669,1944.897339 913.384521,1944.897339 890.915649,1944.897339 
	C890.915649,1913.259644 890.915649,1881.821899 890.915649,1849.842529 
	C896.258972,1849.842529 901.450806,1849.842529 907.746399,1849.842529 
	C907.746399,1873.052246 907.746399,1895.919922 907.746582,1919.761963 
z"/>
<path fill="#0128FD" opacity="1.000000" stroke="none" 
	d="
M1212.337891,1882.003662 
	C1212.337891,1903.541260 1212.337891,1924.080078 1212.337891,1944.974243 
	C1206.330444,1944.974243 1201.509277,1944.974243 1196.178467,1944.974243 
	C1196.178467,1913.298950 1196.178467,1882.120483 1196.178467,1850.194824 
	C1201.187012,1850.194824 1206.238892,1850.194824 1212.337769,1850.194824 
	C1212.337769,1860.530396 1212.337769,1870.767578 1212.337891,1882.003662 
z"/>
<path fill="#FAFAFF" opacity="1.000000" stroke="none" 
	d="
M1307.094116,1920.898804 
	C1291.462402,1934.993774 1274.201294,1930.578247 1267.921997,1911.343262 
	C1263.944824,1899.160400 1264.392456,1887.164795 1271.722778,1876.123535 
	C1281.374878,1861.585449 1300.783691,1862.284424 1309.093628,1877.694824 
	C1316.827759,1892.037476 1315.712646,1906.371704 1307.094116,1920.898804 
z"/>
<path fill="#FAFBFF" opacity="1.000000" stroke="none" 
	d="
M800.449341,1869.948853 
	C816.490784,1862.155151 828.055603,1866.742676 834.273804,1882.542236 
	C839.203003,1895.066772 838.390442,1907.256592 831.422974,1918.661133 
	C822.496948,1933.271606 803.687622,1933.221802 794.566833,1918.739380 
	C785.310425,1904.041626 786.172913,1882.841187 800.449341,1869.948853 
z"/>
</svg>